<?xml version="1.0" encoding="UTF-8" standalone="no"?><!DOCTYPE svg PUBLIC "-//W3C//DTD SVG 1.1//EN" "http://www.w3.org/Graphics/SVG/1.1/DTD/svg11.dtd"><svg width="100%" height="100%" viewBox="0 0 292 294" version="1.1" xmlns="http://www.w3.org/2000/svg" xmlns:xlink="http://www.w3.org/1999/xlink" xml:space="preserve" xmlns:serif="http://www.serif.com/" style="fill-rule:evenodd;clip-rule:evenodd;stroke-linecap:round;stroke-linejoin:round;stroke-miterlimit:1.5;"><g><circle cx="-123.206" cy="-216.057" r="214.759" style="fill:none;stroke:#bcbcbc;stroke-width:7.32px;"/></g><g><path d="M169.463,270.822c0,1.899 -0.754,3.72 -2.097,5.063c-1.342,1.342 -3.163,2.097 -5.062,2.097c0,0 -0.001,0 -0.001,0c-1.899,0 -3.72,-0.755 -5.063,-2.097c-1.342,-1.343 -2.097,-3.164 -2.097,-5.063c0,-25.828 0,-112.692 0,-112.692c0,-23.818 19.338,-43.155 43.156,-43.155c23.818,0 43.156,19.337 43.156,43.155c0,23.819 -19.338,43.156 -43.156,43.156c-11.08,0 -21.19,-4.185 -28.836,-11.058c0,0 0,59.655 0,80.594Zm28.836,-145.664c18.198,0 32.973,14.774 32.973,32.972c0,18.198 -14.775,32.973 -32.973,32.973c-18.198,0 -32.973,-14.775 -32.973,-32.973c0,-18.198 14.775,-32.972 32.973,-32.972Z"/><circle cx="146.55" cy="146.905" r="139.633" style="fill:none;stroke:#000;stroke-width:7.32px;"/></g></svg>