<?xml version="1.0" encoding="UTF-8" standalone="no"?><!DOCTYPE svg PUBLIC "-//W3C//DTD SVG 1.1//EN" "http://www.w3.org/Graphics/SVG/1.1/DTD/svg11.dtd"><svg width="100%" height="100%" viewBox="0 0 290 290" version="1.1" xmlns="http://www.w3.org/2000/svg" xmlns:xlink="http://www.w3.org/1999/xlink" xml:space="preserve" xmlns:serif="http://www.serif.com/" style="fill-rule:evenodd;clip-rule:evenodd;stroke-linecap:round;stroke-linejoin:round;stroke-miterlimit:1.5;"><g><path d="M168.514,268.516c0,1.897 -0.753,3.716 -2.094,5.057c-1.341,1.341 -3.16,2.094 -5.057,2.094c0,0 0,0 0,0c-1.897,0 -3.716,-0.753 -5.057,-2.094c-1.341,-1.341 -2.094,-3.16 -2.094,-5.057c0,-25.797 0,-112.555 0,-112.555c0,-23.789 19.314,-43.103 43.103,-43.103c23.789,0 43.103,19.314 43.103,43.103c0,23.79 -19.314,43.104 -43.103,43.104c-11.067,0 -21.165,-4.18 -28.801,-11.045c0,0 0,59.583 0,80.496Zm28.801,-145.487c18.176,0 32.933,14.756 32.933,32.932c0,18.176 -14.757,32.933 -32.933,32.933c-18.176,0 -32.933,-14.757 -32.933,-32.933c0,-18.176 14.757,-32.932 32.933,-32.932Z"/><circle cx="145.629" cy="144.75" r="139.463" style="fill:none;stroke:#000;stroke-width:7.32px;"/></g></svg>